 http://www.imdb.com/title/tt0485601/
 
http://www.thesecretofkells.com/

User Rating:7.7/10 - 122 votes

Animation,Adventure

Directors:Tomm Moore/Nora Twomey

With the voices of:
Brendan Gleeson ...  Abbot Cellach (voice) 
Liam Hourican   ...  Brother Tang / Leonardo (voice)
Mick Lally      ...  Aidan (voice) 

And others..

Plot:
The animated story of the boy behind the famed Book of Kells. 

Info:

General
Complete name                    : The Secret of Kells-AC3-5,1-DVDRip[Eng]-2009.avi
Format                           : AVI
Format/Info                      : Audio Video Interleave
File size                        : 1 014 MiB
Duration                         : 1h 15mn
Overall bit rate                 : 1 879 Kbps
Writing application              : VirtualDubMod 1.5.4.1 (build 2178/release)
Writing library                  : VirtualDubMod build 2178/release

Video
ID                               : 0
Format                           : MPEG-4 Visual
Format profile                   : Simple@L3
Format settings, BVOP            : No
Format settings, QPel            : No
Format settings, GMC             : No warppoints
Format settings, Matrix          : Default (H.263)
Codec ID                         : XVID
Codec ID/Hint                    : XviD
Duration                         : 1h 15mn
Bit rate                         : 1 421 Kbps
Width                            : 704 pixels
Height                           : 400 pixels
Display aspect ratio             : 16:9
Frame rate                       : 25.000 fps
Resolution                       : 24 bits
Colorimetry                      : 4:2:0
Scan type                        : Progressive
Bits/(Pixel*Frame)               : 0.202
Stream size                      : 767 MiB (76%)
Writing library                  : XviD 1.1.2 (UTC 2006-11-01)

Audio
ID                               : 1
Format                           : AC-3
Format/Info                      : Audio Coding 3
Codec ID                         : 2000
Duration                         : 1h 15mn
Bit rate mode                    : Constant
Bit rate                         : 448 Kbps
Channel(s)                       : 6 channels
Channel positions                : Front: L C R, Surround: L R, LFE
Sampling rate                    : 48.0 KHz
Stream size                      : 242 MiB (24%)
Alignment                        : Split accross interleaves
Interleave, duration             : 40 ms (1.00 video frame)
Interleave, preload duration     : 500 ms

Enjoy...